<svg width="336" height="67" viewBox="0 0 336 67" fill="none" xmlns="http://www.w3.org/2000/svg">
<path d="M18 0.299994H2.3C1.1 0.299994 0.1 1.3 0.1 2.5V64.8C0.1 66 1.1 67 2.3 67H16.9C18.6 67 20.4 67 22.1 66.6C27 65.5 30.7 62.4 33 58.7C34.5 56.5 35.2 54.3 35.2 50.8V43C35.2 37.7 32.5 34.3 29 32.2C28.8 32.1 28.8 31.7 29 31.6C32.6 29.8 35.2 26.2 35.2 21.1V16C35.2 11.3 34 8.5 31.6 6.1C28.4 3.09999 24.1 0.299994 18 0.299994ZM17.3 27.7H13C11.8 27.7 10.8 26.7 10.8 25.5V11.5C10.8 10.3 11.8 9.3 13 9.3H17L18.7 9.4C19.5 9.6 20.2 9.7 20.9 10.1C23 11.3 24.5 12.7 24.5 16V20.1C24.5 23.1 23.6 25.6 21.5 26.7L19.7 27.4C19.7 27.5 19.4 27.5 19.4 27.6C18.7 27.7 18 27.7 17.3 27.7ZM17.1 57.5H13C11.8 57.5 10.8 56.5 10.8 55.3V38.3C10.8 37.1 11.8 36.1 13 36.1H17L18.7 36.2C18.8 36.2 19.2 36.3 19.2 36.3C19.9 36.4 20.5 36.6 21 36.9C23.1 38 24.5 39.8 24.5 43V50.8L24.4 52.1C24.4 52.2 24.3 52.8 24.2 52.9L23.8 54C23.7 54 23.6 54.3 23.6 54.3C22.3 56.2 20.2 57.5 17.1 57.5ZM214.102 67H220.602C221.802 67 222.802 66 222.802 64.8V40.6C222.802 39.4 223.802 38.4 225.002 38.4H228.102C228.902 38.4 229.902 39.1 230.102 39.9L239.402 65.5C239.602 66.3 240.602 67 241.402 67H248.202C249.902 67 250.902 65.6 250.302 64L240.602 38.2C240.202 37.3 240.802 35.9 241.602 35.4C246.402 32.1 248.802 27.8 248.802 22.3V16.1C248.802 6.9 240.502 0.299994 231.002 0.299994H214.102C212.902 0.299994 211.902 1.3 211.902 2.5V64.8C211.902 66 212.902 67 214.102 67ZM230.402 30H225.002C223.802 30 222.802 29 222.802 27.8V11.4C222.802 10.2 223.802 9.2 225.002 9.2H230.502C235.102 9.2 237.902 11.8 237.902 16.1V22.3C237.902 26.3 235.802 30 230.402 30Z" fill="#FEAFBE"/>
<path d="M44.8617 67H51.7617C52.7617 67 53.7617 66.2 53.9617 65.3L56.2617 54.4C56.4617 53.5 57.4617 52.7 58.4617 52.7H68.9617C69.9617 52.7 70.9617 53.5 71.1617 54.4L73.4617 65.3C73.6617 66.2 74.6617 67 75.6617 67H82.6617C84.1617 67 85.1617 65.7 84.7617 64.3L68.8617 2C68.6617 1.1 67.6617 0.299994 66.7617 0.299994H60.7617C59.8617 0.299994 58.8617 1.1 58.6617 2L42.7617 64.3C42.3617 65.7 43.3617 67 44.8617 67ZM59.1617 41.1L61.5617 29.7C62.0617 27.4 65.4617 27.4 65.8617 29.7L68.2617 41.1C68.5617 42.6 67.6617 43.8 66.1617 43.8H61.2617C59.8617 43.8 58.8617 42.6 59.1617 41.1ZM261.387 67H267.687C268.887 67 269.887 66 269.887 64.8V2.5C269.887 1.3 268.887 0.299994 267.687 0.299994H261.387C260.187 0.299994 259.187 1.3 259.187 2.5V64.8C259.187 66 260.187 67 261.387 67Z" fill="#B3DFD3"/>
<path d="M124.385 64.8V59.6C124.385 58.4 123.385 57.4 122.185 57.4H105.085C103.885 57.4 102.885 56.4 102.885 55.2V2.5C102.885 1.3 101.885 0.299994 100.685 0.299994H94.2852C93.0852 0.299994 92.0852 1.3 92.0852 2.5V64.8C92.0852 66 93.0852 67 94.2852 67H122.185C123.385 67 124.385 66 124.385 64.8ZM307.823 67H314.223C315.423 67 316.423 66 316.423 64.8V2.5C316.423 1.3 315.423 0.299994 314.223 0.299994H307.823C306.623 0.299994 305.623 1.3 305.623 2.5V29.7C305.623 32.1 302.323 32.7 301.423 30.6L289.323 1.69999C289.023 0.999997 288.023 0.299994 287.223 0.299994H280.723C279.523 0.299994 278.523 1.3 278.523 2.5V64.8C278.523 66 279.523 67 280.723 67H287.123C288.323 67 289.323 66 289.323 64.8V37.4C289.323 35.1 292.623 34.4 293.523 36.6L305.723 65.7C306.023 66.3 307.023 67 307.823 67Z" fill="#A45A49"/>
<path d="M164.327 64.8V59.6C164.327 58.4 163.327 57.4 162.127 57.4H145.027C143.827 57.4 142.827 56.4 142.827 55.2V2.5C142.827 1.3 141.827 0.299994 140.627 0.299994H134.227C133.027 0.299994 132.027 1.3 132.027 2.5V64.8C132.027 66 133.027 67 134.227 67H162.127C163.327 67 164.327 66 164.327 64.8ZM327.207 67H333.507C334.707 67 335.707 66 335.707 64.8V2.5C335.707 1.3 334.707 0.299994 333.507 0.299994H327.207C326.007 0.299994 325.007 1.3 325.007 2.5V64.8C325.007 66 326.007 67 327.207 67Z" fill="#EFC764"/>
<path d="M202.368 57.4H184.968C183.768 57.4 182.768 56.4 182.768 55.2V40C182.768 38.8 183.768 37.8 184.968 37.8H199.668C200.868 37.8 201.868 36.8 201.868 35.6V31C201.868 29.8 200.868 28.8 199.668 28.8H184.968C183.768 28.8 182.768 27.8 182.768 26.6V11.3C182.768 10.1 183.768 9.09999 184.968 9.09999H202.368C203.568 9.09999 204.568 8.1 204.568 6.9V2.5C204.568 1.3 203.568 0.299994 202.368 0.299994H174.268C173.068 0.299994 172.068 1.3 172.068 2.5V64.8C172.068 66 173.068 67 174.268 67H202.368C203.568 67 204.568 66 204.568 64.8V59.6C204.568 58.4 203.568 57.4 202.368 57.4Z" fill="#97D4D9"/>
</svg>
