<svg width="124" height="93" viewBox="0 0 124 93" fill="none" xmlns="http://www.w3.org/2000/svg">
<path d="M48.9318 47.1502C48.9318 47.1502 55.4454 45.1602 57.0462 35.0607C54.2814 14.2616 34.3788 3.45024 27.8639 3.57248C16.2123 3.78408 2.895 38.5877 11.9451 46.2132C21.2349 54.2725 48.3851 49.2895 48.9318 47.1502Z" fill="#A45A49"/>
<path opacity="0.1" d="M49.5609 37.3077C45.8166 33.5693 30.8071 16.6317 28.1471 20.0305C24.7832 24.3215 44.9211 37.4542 44.9211 37.4542C44.9211 37.4542 22.649 30.4471 22.0428 36.2396C21.6359 40.1362 46.4941 40.9329 46.4941 40.9329L49.5609 37.3077Z" fill="black"/>
<path d="M52.2463 34.045C51.7635 34.2272 51.2943 34.4437 50.8423 34.6929C48.861 35.7534 47.1621 37.2753 45.888 39.1309C44.6139 40.9865 43.8018 43.1218 43.5198 45.3575C43.1775 49.5517 46.3315 53.4852 49.4246 55.8344C51.5553 57.4615 54.0161 58.5989 56.6332 59.1662C59.2502 59.7335 61.9595 59.7168 64.5693 59.1173C66.8983 58.4205 68.9702 57.0488 70.5252 55.1744C72.0801 53.3 73.0487 51.0063 73.3094 48.5814C74.2045 38.1072 61.3787 30.5977 52.2463 34.045Z" fill="#A45A49"/>
<path opacity="0.2" d="M52.2463 34.045C51.7635 34.2272 51.2943 34.4437 50.8423 34.6929C48.861 35.7534 47.1621 37.2753 45.888 39.1309C44.6139 40.9865 43.8018 43.1218 43.5198 45.3575C43.1775 49.5517 46.3315 53.4852 49.4246 55.8344C51.5553 57.4615 54.0161 58.5989 56.6332 59.1662C59.2502 59.7335 61.9595 59.7168 64.5693 59.1173C66.8983 58.4205 68.9702 57.0488 70.5252 55.1744C72.0801 53.3 73.0487 51.0063 73.3094 48.5814C74.2045 38.1072 61.3787 30.5977 52.2463 34.045Z" fill="black"/>
<path d="M68.6749 45.6387C72.9827 40.4387 104.764 32.0443 115.617 48.2586C121.267 56.7089 103.514 87.425 93.1526 87.5356C78.1293 87.7218 63.7633 67.7069 64.2721 56.5635C64.1809 54.5319 64.527 52.5046 65.2868 50.6193C66.0465 48.7341 67.2021 47.0353 68.6749 45.6387Z" fill="#A45A49"/>
<path opacity="0.1" d="M66.5067 48.3633C66.0215 49.1818 65.5989 50.036 65.2424 50.9187C66.3361 53.3796 84.6552 70.2604 86.5839 66.8015C88.5126 63.3426 70.0882 50.8744 70.0882 50.8744C70.0882 50.8744 95.0417 56.0556 95.3364 51.3541C95.4716 48.2593 69.9444 47.1843 66.5067 48.3633Z" fill="black"/>
</svg>
